<svg width="256" height="256" viewBox="0 0 256 256" fill="none" xmlns="http://www.w3.org/2000/svg">
<g clip-path="url(#clip0_1_2)">
<rect x="1" y="1" width="254" height="254" rx="64" fill="white" stroke="black" stroke-width="2"/>
<path d="M106.93 111.045L150.753 140.638L106.93 170.232V190.05L180.144 140.638L106.93 91.227V111.045Z" fill="#41B883"/>
<path d="M106.93 129.274L123.821 140.638L106.93 152.003V170.232L150.753 140.638L106.93 111.045V129.274Z" fill="#34495E"/>
<path d="M39.616 178.794V177.502L66.9682 159.102C70.1128 157.047 73.3664 154.68 76.7446 152.018C80.1072 149.356 83.2051 146.289 86.0228 142.818C88.8406 139.346 91.1446 135.47 92.9348 131.173C94.7251 126.892 95.628 122.082 95.628 116.758C95.628 109.924 93.9934 104.164 90.7398 99.4934C87.4862 94.8231 82.956 91.2426 77.1493 88.7518C71.3426 86.261 64.5863 85 56.8804 85C48.0847 85 40.659 86.6035 34.5721 89.8104C28.4852 93.0173 23.9083 97.5163 20.8104 103.323C17.7124 109.13 16.2802 115.995 16.4982 123.919L36.2067 127.826C36.2067 123.701 36.5803 120.074 37.3431 116.913C38.1059 113.769 39.3202 111.138 41.0015 109.021C42.6828 106.904 44.8 105.3 47.353 104.21C49.9061 103.121 52.9729 102.576 56.5535 102.576C60.5699 102.576 63.9636 103.23 66.7346 104.537C69.5057 105.845 71.6229 107.635 73.0862 109.908C74.5496 112.181 75.2812 114.952 75.2812 118.206C75.2812 121.241 74.6897 124.09 73.491 126.752C72.2923 129.414 70.7822 131.874 68.9297 134.162C67.0771 136.435 65.0689 138.475 62.905 140.265C60.7256 142.055 58.6084 143.705 56.5535 145.231L16 173.268V195.094H97.574V178.794H39.616Z" fill="#34495E"/>
<path d="M236.093 145.402C233.493 140.732 229.196 137.042 223.234 134.334C217.256 131.625 209.176 129.009 198.98 129.445L233.337 105.02V85H158.924V101.937L212.663 101.611V102.918L179.255 125.989L205.144 143.659L212.959 148.998C217.131 151.847 219.669 155.35 219.669 160.565C219.669 164.799 218.641 168.24 216.571 170.902C214.516 173.564 211.745 175.51 208.273 176.771C204.802 178.016 200.832 178.639 196.395 178.639C193.36 178.639 190.417 178.265 187.6 177.502C184.782 176.74 182.276 175.525 180.112 173.844C177.948 172.163 176.204 170.014 174.897 167.415C173.885 165.391 172.686 160.425 172.499 154.992L154.472 167.166C155.063 170.575 155.998 173.937 157.305 176.693C159.158 180.6 161.789 183.885 165.198 186.547C168.623 189.209 172.873 191.264 177.979 192.727C183.085 194.191 189.11 194.922 196.053 194.922C205.923 194.922 214.127 193.537 220.634 190.766C227.141 187.995 231.998 184.072 235.205 178.966C238.397 173.86 240 167.897 240 161.063C240 155.287 238.692 150.072 236.093 145.402Z" fill="#41B883"/>
</g>
<defs>
<clipPath id="clip0_1_2">
<rect width="256" height="256" fill="white"/>
</clipPath>
</defs>
</svg>
    