<svg version="1.1" xmlns="http://www.w3.org/2000/svg" xmlns:xlink="http://www.w3.org/1999/xlink" x="0px" y="0px"
	 viewBox="0 0 680 139.75" style="enable-background:new 0 0 680 139.75;" xml:space="preserve">
<style type="text/css">
	.st0{fill:none;stroke:#221F1F;stroke-miterlimit:10;}
	.st1{fill:#34495E;}
	.st2{fill:#41B883;}
	.st3{fill:#FFFFFF;}
</style>
<g id="Info">
</g>
<g id="Logo-01">
</g>
<g id="HQ">
	<g>
		<g>
			<polygon class="st2" points="92.41,50.51 120.56,69.52 92.41,88.53 92.41,101.26 139.44,69.52 92.41,37.78 			"/>
			<polygon class="st1" points="92.41,62.22 103.26,69.52 92.41,76.82 92.41,88.53 120.56,69.52 92.41,50.51 			"/>
			<path class="st1" d="M49.17,94.03V93.2l17.57-11.82c2.02-1.32,4.11-2.84,6.28-4.55c2.16-1.71,4.15-3.68,5.96-5.91
				c1.81-2.23,3.29-4.72,4.44-7.48c1.15-2.75,1.73-5.84,1.73-9.26c0-4.39-1.05-8.09-3.14-11.09c-2.09-3-5-5.3-8.73-6.9
				c-3.73-1.6-8.07-2.41-13.02-2.41c-5.65,0-10.42,1.03-14.33,3.09c-3.91,2.06-6.85,4.95-8.84,8.68c-1.99,3.73-2.91,8.14-2.77,13.23
				l12.66,2.51c0-2.65,0.24-4.98,0.73-7.01c0.49-2.02,1.27-3.71,2.35-5.07c1.08-1.36,2.44-2.39,4.08-3.09
				c1.64-0.7,3.61-1.05,5.91-1.05c2.58,0,4.76,0.42,6.54,1.26c1.78,0.84,3.14,1.99,4.08,3.45c0.94,1.46,1.41,3.24,1.41,5.33
				c0,1.95-0.38,3.78-1.15,5.49c-0.77,1.71-1.74,3.29-2.93,4.76c-1.19,1.46-2.48,2.77-3.87,3.92c-1.4,1.15-2.76,2.21-4.08,3.19
				L34,90.48v14.02h52.4V94.03H49.17z"/>
			<path class="st2" d="M175.61,74.16c-1.67-3-4.43-5.37-8.26-7.11c-3.84-1.74-9.03-3.42-15.58-3.14l0,0l22.07-15.69V35.36h-47.8
				v10.88l34.52-0.21v0.84l-21.46,14.82l16.63,11.35l5.02,3.43c2.68,1.83,4.31,4.08,4.31,7.43c0,2.72-0.66,4.93-1.99,6.64
				c-1.32,1.71-3.1,2.96-5.33,3.77c-2.23,0.8-4.78,1.2-7.63,1.2c-1.95,0-3.84-0.24-5.65-0.73c-1.81-0.49-3.42-1.27-4.81-2.35
				c-1.39-1.08-2.51-2.46-3.35-4.13c-0.65-1.3-1.42-4.49-1.54-7.98l-11.58,7.82c0.38,2.19,0.98,4.35,1.82,6.12
				c1.19,2.51,2.88,4.62,5.07,6.33c2.2,1.71,4.93,3.03,8.21,3.97c3.28,0.94,7.15,1.41,11.61,1.41c6.34,0,11.61-0.89,15.79-2.67
				c4.18-1.78,7.3-4.3,9.36-7.58c2.05-3.28,3.08-7.11,3.08-11.5C178.12,80.51,177.28,77.16,175.61,74.16z"/>
		</g>
		<g>
			<g>
				<g>
					<g>
						<path class="st1" d="M263,54.62c-1.14-1.71-2.54-3.02-4.23-3.91c-1.69-0.89-3.64-1.34-5.85-1.34c-2.27,0-4.34,0.5-6.21,1.5
							c-1.87,1-3.45,2.5-4.74,4.51c-1.29,2-2.28,4.53-2.96,7.59h-1.27c-0.21-2.69-0.75-5.05-1.62-7.07
							c-0.87-2.03-2.12-3.62-3.75-4.78c-1.64-1.16-3.72-1.74-6.25-1.74c-2.27,0-4.27,0.5-6.01,1.5c-1.74,1-3.2,2.52-4.39,4.55
							c-1.19,2.03-2.15,4.57-2.89,7.63h-1.42l0.24-12.65h-8.14v15.18v26.16h9.96V72.6c0.1-2.74,0.54-5.22,1.3-7.43
							c0.76-2.21,1.82-3.95,3.16-5.22c1.34-1.26,2.96-1.9,4.86-1.9c1.63,0,2.98,0.5,4.03,1.5c1.05,1,1.84,2.52,2.37,4.55
							c0.53,2.03,0.79,4.57,0.79,7.63v20h9.8V72.44c0.16-2.79,0.63-5.28,1.42-7.47c0.79-2.19,1.87-3.89,3.24-5.1
							c1.37-1.21,2.98-1.82,4.82-1.82c1.63,0,2.97,0.49,3.99,1.46c1.03,0.98,1.79,2.44,2.29,4.39c0.5,1.95,0.75,4.4,0.75,7.35v20.47
							h10.04V69.99c0-3.37-0.28-6.35-0.83-8.93C264.98,58.48,264.13,56.33,263,54.62z"/>
						<path class="st1" d="M281.93,33.79c-2,0-3.55,0.43-4.63,1.3c-1.08,0.87-1.62,2.12-1.62,3.76c0,1.63,0.54,2.89,1.62,3.76
							c1.08,0.87,2.62,1.3,4.63,1.3c2.06,0,3.62-0.43,4.7-1.3c1.08-0.87,1.62-2.12,1.62-3.76c0-1.69-0.53-2.95-1.58-3.79
							C285.62,34.21,284.04,33.79,281.93,33.79z"/>
						<rect x="276.95" y="50.39" class="st1" width="9.96" height="41.34"/>
						<path class="st1" d="M331.21,83.51c-1.66-0.68-3.32-1.11-4.98-1.27c-1.66-0.16-3.02-0.24-4.07-0.24h-10.99
							c-0.79,0-1.61-0.05-2.45-0.16c-0.84-0.1-1.53-0.3-2.06-0.59c-0.53-0.29-0.79-0.64-0.79-1.07c0-0.53,0.34-1.09,1.03-1.7
							c0.69-0.61,1.58-1.3,2.69-2.09c1.69,0.21,2.92,0.34,3.71,0.39c0.79,0.05,1.53,0.08,2.21,0.08c3.69,0,6.84-0.46,9.45-1.38
							c2.61-0.92,4.6-2.21,5.97-3.87c1.37-1.66,2.06-3.57,2.06-5.73c0-2.26-0.78-4.06-2.33-5.37c-1.55-1.32-3.97-2.24-7.23-2.77V56
							l12.96,1.9v-7.91h-20.47c-4.11,0-7.6,0.59-10.47,1.78c-2.87,1.19-5.05,2.81-6.52,4.86c-1.48,2.06-2.21,4.43-2.21,7.11
							c0,3,0.89,5.44,2.69,7.31c1.79,1.87,4.29,2.88,7.51,3.04v1.58c-3.37,0.74-5.78,1.66-7.23,2.77c-1.45,1.11-2.17,2.37-2.17,3.79
							c0,1.48,0.74,2.54,2.21,3.2c1.48,0.66,3.64,0.96,6.48,0.91v1.58c-3.79,0.37-6.65,1.33-8.58,2.89
							c-1.92,1.55-2.89,3.54-2.89,5.97c0,2,0.68,3.69,2.06,5.06c1.37,1.37,3.49,2.4,6.36,3.08c2.87,0.68,6.55,1.03,11.03,1.03
							c5.06,0,9.29-0.45,12.68-1.34c3.4-0.9,5.96-2.31,7.67-4.23c1.71-1.92,2.57-4.39,2.57-7.39c0-2.69-0.57-4.77-1.7-6.25
							C334.27,85.27,332.87,84.19,331.21,83.51z M306.59,64.22c0-2.21,0.75-4.03,2.25-5.45c1.5-1.42,3.62-2.13,6.36-2.13
							c2.74,0,4.83,0.73,6.28,2.17c1.45,1.45,2.17,3.31,2.17,5.57c0,2.11-0.71,3.81-2.13,5.1c-1.42,1.29-3.51,1.94-6.25,1.94
							c-1.9,0-3.49-0.3-4.78-0.91c-1.29-0.6-2.27-1.45-2.92-2.53C306.92,66.9,306.59,65.64,306.59,64.22z M327.06,95.56
							c-0.84,0.82-2.24,1.41-4.19,1.78c-1.95,0.37-4.56,0.55-7.83,0.55c-2.27,0-4.2-0.11-5.81-0.32c-1.61-0.21-2.83-0.65-3.68-1.3
							c-0.84-0.66-1.26-1.62-1.26-2.89c0-1.26,0.51-2.42,1.54-3.48c1.03-1.05,2.81-1.76,5.33-2.13h9.72c0.58,0,1.29,0.03,2.13,0.08
							c0.84,0.05,1.67,0.21,2.49,0.47c0.82,0.27,1.49,0.73,2.02,1.38c0.53,0.66,0.79,1.57,0.79,2.73
							C328.33,93.71,327.91,94.75,327.06,95.56z"/>
						<path class="st1" d="M367.85,49.44c-2.64,0-4.85,0.57-6.64,1.7c-1.79,1.13-3.19,2.82-4.19,5.06c-1,2.24-1.74,5.05-2.22,8.42
							h-1.42l0.16-14.23h-8.38v20.63v20.71h9.96V72.44c0.48-2.63,1.17-4.91,2.09-6.84c0.92-1.92,2.13-3.41,3.64-4.47
							c1.5-1.05,3.28-1.58,5.34-1.58c0.74,0,1.54,0.07,2.41,0.2c0.87,0.13,1.73,0.36,2.57,0.67l0.39-10.51
							c-0.74-0.21-1.41-0.34-2.02-0.39C368.94,49.47,368.38,49.44,367.85,49.44z"/>
						<path class="st1" d="M412.79,80.39c-0.08-1.92-0.12-3.78-0.12-5.57v-7.75c0-4.11-0.61-7.47-1.82-10.08
							c-1.21-2.61-3.06-4.53-5.53-5.77c-2.48-1.24-5.64-1.86-9.49-1.86c-2.53,0-4.85,0.26-6.96,0.79c-2.11,0.53-3.98,1.34-5.61,2.45
							c-1.63,1.11-3,2.44-4.11,3.99c-1.11,1.55-1.95,3.39-2.53,5.49l8.93,2.77c0.37-1.84,1.05-3.33,2.06-4.47
							c1-1.13,2.2-1.96,3.6-2.49c1.39-0.53,2.86-0.79,4.39-0.79c2.53,0,4.36,0.59,5.49,1.78c1.13,1.19,1.7,2.6,1.7,4.23
							c0,1.11-0.26,1.94-0.79,2.49c-0.53,0.55-1.36,0.96-2.49,1.23c-1.13,0.26-2.6,0.53-4.39,0.79c-3.27,0.47-6.11,1.04-8.54,1.7
							c-2.42,0.66-4.45,1.48-6.09,2.45c-1.64,0.98-2.86,2.23-3.68,3.75c-0.82,1.53-1.22,3.37-1.22,5.53c0,2.58,0.51,4.74,1.54,6.48
							c1.03,1.74,2.44,3.04,4.23,3.91c1.79,0.87,3.82,1.3,6.09,1.3c2.58,0,4.86-0.49,6.84-1.46c1.98-0.97,3.65-2.29,5.02-3.95
							c1.37-1.66,2.42-3.49,3.16-5.49h1.26c0.11,1.74,0.24,3.45,0.4,5.14c0.16,1.69,0.34,3.27,0.55,4.74h8.93
							c-0.21-1.79-0.38-3.65-0.51-5.57C412.97,84.23,412.87,82.31,412.79,80.39z M400.73,80.46c-0.9,1.08-1.87,1.99-2.92,2.73
							c-1.05,0.74-2.12,1.29-3.2,1.66c-1.08,0.37-2.15,0.55-3.2,0.55c-1.79,0-3.27-0.5-4.43-1.5c-1.16-1-1.74-2.4-1.74-4.19
							c0-1.42,0.34-2.54,1.03-3.36c0.68-0.82,1.61-1.45,2.77-1.9c1.16-0.45,2.46-0.82,3.91-1.11c1.45-0.29,2.9-0.54,4.35-0.75
							c1.45-0.21,2.83-0.53,4.15-0.95c0.53-0.17,1-0.38,1.46-0.6l0.12,5.58C402.39,78.11,401.63,79.39,400.73,80.46z"/>
						<path class="st1" d="M440.26,83.43c-1.85,0-3.23-0.45-4.15-1.34c-0.92-0.9-1.38-2.32-1.38-4.27V58.69h10.91v-8.3h-10.91v-9.17
							h-5.77L428,47.23c-0.16,1.21-0.6,2.05-1.34,2.53c-0.74,0.47-1.87,0.71-3.4,0.71h-4.03l-0.16,7.9h6.09v19.84
							c0,4.95,1.03,8.6,3.08,10.95c2.06,2.34,5.27,3.52,9.64,3.52c1.05,0,2.25-0.09,3.6-0.28c1.34-0.19,2.83-0.54,4.47-1.07v-9.49
							c-0.84,0.58-1.75,0.99-2.73,1.23C442.24,83.31,441.25,83.43,440.26,83.43z"/>
						<path class="st1" d="M482.07,78.21c-0.26,0.95-0.62,1.84-1.07,2.69c-0.45,0.84-1.04,1.6-1.78,2.25
							c-0.74,0.66-1.65,1.19-2.73,1.58c-1.08,0.39-2.41,0.59-3.99,0.59c-3.53,0-6.31-1.13-8.34-3.4c-1.81-2.02-2.76-5.01-2.96-8.88
							l29.08-0.21c0.26-3.85,0-7.23-0.79-10.16c-0.79-2.92-2-5.37-3.64-7.35c-1.63-1.98-3.64-3.46-6.01-4.47
							c-2.37-1-5.06-1.5-8.06-1.5c-3.21,0-6.07,0.55-8.58,1.66c-2.5,1.11-4.62,2.66-6.36,4.66c-1.74,2-3.07,4.38-3.99,7.11
							c-0.92,2.74-1.38,5.74-1.38,9.01c0,3.27,0.47,6.19,1.42,8.77c0.95,2.58,2.32,4.78,4.11,6.6c1.79,1.82,3.99,3.2,6.6,4.15
							c2.61,0.95,5.57,1.42,8.89,1.42c2.74,0,5.14-0.29,7.19-0.87c2.06-0.58,3.84-1.42,5.34-2.53c1.5-1.11,2.73-2.42,3.68-3.95
							c0.95-1.53,1.63-3.27,2.06-5.22L482.07,78.21z M466.18,58.97c1.63-1.13,3.53-1.7,5.69-1.7c1.9,0,3.58,0.46,5.06,1.38
							c1.48,0.92,2.61,2.35,3.4,4.27c0.49,1.18,0.74,2.59,0.8,4.18l-19.66,0.17c0.22-1.24,0.53-2.38,0.95-3.41
							C463.3,61.73,464.55,60.1,466.18,58.97z"/>
					</g>
				</g>
			</g>
			<g>
				<rect x="496.53" y="66.2" class="st2" width="16.2" height="9.01"/>
				<polygon class="st2" points="536.17,83.75 534.99,83.75 525.42,50.47 514.35,50.47 528.5,91.73 542.26,91.73 556.48,50.47 
					545.74,50.47 				"/>
				<path class="st2" d="M590.47,69.12c-0.11,2.21-0.41,4.24-0.91,6.09c-0.5,1.85-1.17,3.47-2.02,4.86c-0.84,1.4-1.84,2.48-3,3.24
					c-1.16,0.76-2.51,1.15-4.03,1.15c-2.63,0-4.58-1.03-5.85-3.08c-1.27-2.06-1.9-5.16-1.9-9.33V50.39h-10.04v22.76
					c0,6.59,1.2,11.5,3.6,14.74c2.4,3.24,5.97,4.86,10.71,4.86c2.53,0,4.69-0.49,6.48-1.46c1.79-0.97,3.31-2.49,4.55-4.55
					c1.24-2.06,2.2-4.74,2.89-8.06h1.42l-0.16,13.04h8.22v-17V50.39h-9.96V69.12z"/>
				<path class="st2" d="M637.31,78.21c-0.26,0.95-0.62,1.84-1.07,2.69c-0.45,0.84-1.04,1.6-1.78,2.25
					c-0.74,0.66-1.65,1.19-2.73,1.58c-1.08,0.39-2.41,0.59-3.99,0.59c-3.53,0-6.31-1.13-8.34-3.4c-1.81-2.02-2.76-5.01-2.96-8.88
					l29.08-0.21c0.26-3.85,0-7.23-0.79-10.16c-0.79-2.92-2-5.37-3.64-7.35c-1.63-1.98-3.64-3.46-6.01-4.47
					c-2.37-1-5.06-1.5-8.06-1.5c-3.21,0-6.07,0.55-8.58,1.66c-2.5,1.11-4.62,2.66-6.36,4.66c-1.74,2-3.07,4.38-3.99,7.11
					c-0.92,2.74-1.38,5.74-1.38,9.01c0,3.27,0.47,6.19,1.42,8.77c0.95,2.58,2.32,4.78,4.11,6.6c1.79,1.82,3.99,3.2,6.6,4.15
					c2.61,0.95,5.57,1.42,8.89,1.42c2.74,0,5.14-0.29,7.19-0.87c2.06-0.58,3.84-1.42,5.34-2.53c1.5-1.11,2.73-2.42,3.68-3.95
					c0.95-1.53,1.63-3.27,2.06-5.22L637.31,78.21z M621.42,58.97c1.63-1.13,3.53-1.7,5.69-1.7c1.9,0,3.58,0.46,5.06,1.38
					c1.48,0.92,2.61,2.35,3.4,4.27c0.49,1.18,0.74,2.59,0.8,4.18l-19.66,0.17c0.22-1.24,0.53-2.38,0.95-3.41
					C618.53,61.73,619.78,60.1,621.42,58.97z"/>
			</g>
		</g>
	</g>
</g>
</svg>
